<?xml version="1.0" standalone="no"?>
<svg xmlns="http://www.w3.org/2000/svg" width="271.0780840872805" height="97.59808408728047" viewBox="0 0 271.0780840872805 97.59808408728047"><g fill="#58d86d" color="#58d86d" transform="translate(0 0) scale(0.9759809)"><svg width="100.0" height="100.0" x="0.0" y="0.0" viewBox="0 0 100 100"><g><g><path d="M55.6,11.3h-38c-2,0-3.6-1.6-3.6-3.6V3.6c0-2,1.6-3.6,3.6-3.6h38c2,0,3.6,1.6,3.6,3.6v4.2    C59.2,9.7,57.6,11.3,55.6,11.3z M17.6,2.2c-0.7,0-1.3,0.6-1.3,1.3v4.2c0,0.7,0.6,1.3,1.3,1.3h38c0.7,0,1.3-0.6,1.3-1.3V3.6    c0-0.7-0.6-1.3-1.3-1.3H17.6z"></path></g><g><path d="M50.4,100l-29.2,0C10.7,99.9,2.3,91.3,2.3,80.9v-45c0-14.5,9.7-19.4,13.9-20.8c1-0.3,1.7-1.3,1.7-2.4    v-2.5c0-0.6,0.5-1.1,1.1-1.1c0.6,0,1.1,0.5,1.1,1.1v2.5c0,2.1-1.3,3.9-3.2,4.6c-4.6,1.6-12.3,6.1-12.3,18.7v45    c0,9.2,7.5,16.7,16.6,16.8l0.5,0h28.7c0.6,0,1.1,0.5,1.1,1.1C51.5,99.5,51,100,50.4,100z"></path></g><g><path d="M69.9,38.1c-0.6,0-1.1-0.5-1.1-1.1v-1.1c0-12.6-7.7-17.1-12.3-18.7c-1.9-0.7-3.2-2.5-3.2-4.6v-2.5    c0-0.6,0.5-1.1,1.1-1.1c0.6,0,1.1,0.5,1.1,1.1v2.5c0,1.1,0.7,2.1,1.7,2.4C61.3,16.6,71,21.4,71,35.9V37    C71,37.6,70.5,38.1,69.9,38.1z"></path></g><g><path d="M21.9,52.7C21.9,52.7,21.9,52.7,21.9,52.7C8,52.2,3.4,51.3,3.2,51.2c-0.6-0.1-1-0.7-0.9-1.3    c0.1-0.6,0.7-1,1.3-0.9l0,0c0,0,4.7,0.9,18.3,1.4c0.6,0,1.1,0.5,1.1,1.2C23,52.2,22.5,52.7,21.9,52.7z"></path></g><g><path d="M28.4,76C28.3,76,28.3,76,28.4,76C9.5,75.7,3.4,74.4,3.2,74.4c-0.6-0.1-1-0.7-0.9-1.3    c0.1-0.6,0.7-1,1.3-0.9c0.1,0,6.2,1.2,24.7,1.5c0.6,0,1.1,0.5,1.1,1.1C29.5,75.5,29,76,28.4,76z"></path></g><g><path d="M30.1,92.5l5.7-22c0.1-0.4,0-0.9-0.2-1.2c-0.3-0.3-0.7-0.5-1.1-0.6l-8.2-0.1L27.7,42h17.9l-3.5,14.3    c-0.1,0.4,0,0.9,0.3,1.2c0.3,0.3,0.7,0.5,1.1,0.5h3.9c1.5,0,2.8,0.8,3.5,2.2c0.7,1.3,0.6,2.9-0.3,4.1L30.1,92.5z M28.7,66.4    l5.9,0.1c1.1,0,2.2,0.5,2.9,1.4c0.7,0.9,0.9,2,0.6,3.1l-2.7,10.5L48.8,63c0.4-0.5,0.4-1.2,0.1-1.8c-0.3-0.6-0.9-0.9-1.5-0.9h-3.9    c-1.1,0-2.2-0.5-2.9-1.4c-0.7-0.9-0.9-2-0.7-3.1l2.8-11.5H29.8L28.7,66.4z"></path></g><g><path d="M92.3,100h-9.5c-3,0-5.4-2.4-5.4-5.4c0-3,2.4-5.4,5.4-5.4h9.5c3,0,5.4,2.4,5.4,5.4    C97.7,97.6,95.3,100,92.3,100z M82.9,91.5c-1.7,0-3.1,1.4-3.1,3.1c0,1.7,1.4,3.1,3.1,3.1h9.5c1.7,0,3.1-1.4,3.1-3.1    c0-1.7-1.4-3.1-3.1-3.1H82.9z"></path></g><g><path d="M92.3,91.5c-0.6,0-1.1-0.5-1.1-1.1c0-0.6,0.5-1.1,1.1-1.1c1.7,0,3.1-1.4,3.1-3.1c0-1.7-1.4-3.1-3.1-3.1    h-9.5c-1.7,0-3.1,1.4-3.1,3.1c0,1.7,1.4,3.1,3.1,3.1c0.6,0,1.1,0.5,1.1,1.1c0,0.6-0.5,1.1-1.1,1.1c-3,0-5.4-2.4-5.4-5.4    c0-3,2.4-5.4,5.4-5.4h9.5c3,0,5.4,2.4,5.4,5.4C97.7,89.1,95.3,91.5,92.3,91.5z"></path></g><g><path d="M92.3,83c-0.6,0-1.1-0.5-1.1-1.1s0.5-1.1,1.1-1.1c1.7,0,3.1-1.4,3.1-3.1c0-1.7-1.4-3.1-3.1-3.1h-9.5    c-1.7,0-3.1,1.4-3.1,3.1c0,1.7,1.4,3.1,3.1,3.1c0.6,0,1.1,0.5,1.1,1.1S83.5,83,82.9,83c-3,0-5.4-2.4-5.4-5.4s2.4-5.4,5.4-5.4h9.5    c3,0,5.4,2.4,5.4,5.4S95.3,83,92.3,83z"></path></g><g><path d="M73.2,100H60.4c-2.6,0-4.7-2.1-4.7-4.7V64.8c-0.2-3.3,0.9-9.4,6.3-10.7v-4.3c0-0.6,0.5-1.1,1.1-1.1    c0.6,0,1.1,0.5,1.1,1.1V56l-1,0.1c-5.9,0.8-5.4,8.2-5.4,8.6l0,0.1v30.5c0,1.3,1.1,2.4,2.4,2.4h12.8c0.6,0,1.1,0.5,1.1,1.1    S73.8,100,73.2,100z"></path></g><g><path d="M87.6,69c-0.6,0-1.1-0.5-1.1-1.1l0-3.2c0-0.3,0.6-7.8-5.4-8.6l-1-0.1v-6.2c0-0.6,0.5-1.1,1.1-1.1    c0.6,0,1.1,0.5,1.1,1.1v4.3c5.6,1.3,6.6,7.5,6.3,10.7v3C88.7,68.5,88.2,69,87.6,69z"></path></g><g><path d="M82.5,50.9H61.9c-1.8,0-3.3-1.5-3.3-3.3v-2.9c0-1.8,1.5-3.3,3.3-3.3h20.7c1.8,0,3.3,1.5,3.3,3.3v2.9    C85.9,49.4,84.4,50.9,82.5,50.9z M61.9,43.6c-0.6,0-1.1,0.5-1.1,1.1v2.9c0,0.6,0.5,1.1,1.1,1.1h20.7c0.6,0,1.1-0.5,1.1-1.1v-2.9    c0-0.6-0.5-1.1-1.1-1.1H61.9z"></path></g></g></svg></g><path fill="#001f3f" fill-rule="nonzero" d="M21.56 0L21.56 28.48L16 28.48L16 16.96L5.56 16.96L5.56 28.48L0 28.48L0 0L5.56 0L5.56 12.04L16 12.04L16 0L21.56 0ZM43.20 0L48.72 0L48.72 18.72Q48.72 23.36 45.58 26.04Q42.44 28.72 37.84 28.72Q33.24 28.72 30.10 26.04Q26.96 23.36 26.96 18.72L26.96 18.72L26.96 0L32.52 0L32.52 18.52Q32.52 21.16 33.98 22.46Q35.44 23.76 37.84 23.76Q40.24 23.76 41.72 22.46Q43.20 21.16 43.20 18.52L43.20 18.52L43.20 0ZM75.16 20.28L75.16 20.28Q75.16 24.24 73.02 26.36Q70.88 28.48 67.04 28.48L67.04 28.48L63.20 28.48Q58.48 28.48 56.50 26.84Q54.52 25.20 54.52 21.16L54.52 21.16L54.52 0L66.56 0Q70.64 0 72.70 2.04Q74.76 4.08 74.76 7.80L74.76 7.80Q74.76 9.96 73.66 11.48Q72.56 13 71.24 13.64L71.24 13.64Q75.16 15.48 75.16 20.28ZM60.08 11.12L66.12 11.12Q69.20 11.12 69.20 8.04Q69.20 4.96 66.12 4.96L66.12 4.96L60.08 4.96L60.08 11.12ZM69.60 20L69.60 20Q69.60 18.08 68.92 17.10Q68.24 16.12 66.48 16.12L66.48 16.12L60.08 16.12L60.08 20.60Q60.08 22.24 60.90 22.88Q61.72 23.52 63.60 23.52L63.60 23.52L66.48 23.52Q69.60 23.52 69.60 20Z" transform="translate(112.599 0) scale(2.109)"></path><path fill="#001f3f" fill-rule="nonzero" d="M17.98 2.70Q20.44 5.16 20.44 9.92Q20.44 14.68 17.98 17.14Q15.52 19.60 11.04 19.60L11.04 19.60L5.56 19.60L5.56 28.72L0 28.72L0 0.24L11.04 0.24Q15.52 0.24 17.98 2.70ZM14.88 9.92L14.88 9.92Q14.88 5.20 10.76 5.20L10.76 5.20L5.56 5.20L5.56 14.60L10.76 14.60Q12.76 14.60 13.82 13.52Q14.88 12.44 14.88 9.92ZM40.32 17.24L46.68 28.72L40.24 28.72L34.68 18.16L30.68 18.16L30.68 28.72L25.12 28.72L25.12 6.36Q25.12 3.16 26.60 1.70Q28.08 0.24 31.56 0.24L31.56 0.24L36.28 0.24Q40.52 0.24 43.02 2.82Q45.52 5.40 45.52 9.36L45.52 9.36Q45.52 12.24 44.02 14.34Q42.52 16.44 40.32 17.24L40.32 17.24ZM35.92 13.52Q37.68 13.52 38.82 12.30Q39.96 11.08 39.96 9.26Q39.96 7.44 38.86 6.32Q37.76 5.20 35.92 5.20L35.92 5.20L33.16 5.20Q30.68 5.20 30.68 7.72L30.68 7.72L30.68 13.52L35.92 13.52ZM72.16 13.16L72.16 13.16L72.16 15.32Q72.16 22.48 69.46 25.72Q66.76 28.96 60.80 28.96Q54.84 28.96 52.18 25.72Q49.52 22.48 49.52 15.20L49.52 15.20L49.52 13.12Q49.52 6.48 52.22 3.24Q54.92 0 60.78 0Q66.64 0 69.40 3.28Q72.16 6.56 72.16 13.16ZM66.60 15.20L66.60 15.20L66.60 13.72Q66.60 9.88 65.64 7.60L65.64 7.60Q64.52 4.96 60.84 4.96L60.84 4.96Q57.12 4.96 56 7.60L56 7.60Q55.08 9.76 55.08 13.72L55.08 13.72L55.08 15.20Q55.08 20.36 56.52 22.16L56.52 22.16Q57.08 22.92 58.18 23.46Q59.28 24 60.82 24Q62.36 24 63.44 23.48Q64.52 22.96 65.12 22.20Q65.72 21.44 66.04 20.20L66.04 20.20Q66.60 18.24 66.60 15.20ZM95.56 0.24L95.56 5.20L87.92 5.20L87.92 28.72L82.36 28.72L82.36 5.20L74.76 5.20L74.76 0.24L95.56 0.24ZM118.64 23.76L118.64 28.72L108.56 28.72Q103.76 28.72 101.82 27.06Q99.88 25.40 99.88 21.20L99.88 21.20L99.88 0.24L118.64 0.24L118.64 5.20L105.44 5.20L105.44 11.88L114.68 11.88L114.28 16.84L105.44 16.84L105.44 20.80Q105.44 22.48 106.20 23.12Q106.96 23.76 108.96 23.76L108.96 23.76L118.64 23.76ZM129.64 0.24L129.64 28.72L124.08 28.72L124.08 0.24L129.64 0.24ZM152.92 0.24L158.48 0.24L158.48 25.84Q158.48 27.16 157.68 28.10Q156.88 29.04 155.80 29.04L155.80 29.04Q153.04 29.04 151.28 25.84L151.28 25.84L141.44 10.44L141.44 28.72L135.88 28.72L135.88 0.24L141.24 0.24L152.92 18.88L152.92 0.24Z" transform="translate(112.599 68.559) scale(1)"></path></svg>